<?xml version="1.0" encoding="UTF-8" standalone="no"?>
<svg width="22px" height="24px" viewBox="0 0 22 24" version="1.1" xmlns="http://www.w3.org/2000/svg" xmlns:xlink="http://www.w3.org/1999/xlink">
    <!-- Generator: Sketch 39 (31667) - http://www.bohemiancoding.com/sketch -->
    <title>Slice 1</title>
    <desc>Created with Sketch.</desc>
    <defs></defs>
    <g id="Page-1" stroke="none" stroke-width="1" fill="none" fill-rule="evenodd">
        <g id="Calendar" fill="#767771">
            <g>
                <g id="_x40__x3C_Group_x3E__57_">
                    <path d="M20.5,0 L1.5,0 C0.6729,0 0,0.6729 0,1.5 L0,22.5 C0,23.3271 0.6729,24 1.5,24 L20.5,24 C21.3271,24 22,23.3271 22,22.5 L22,1.5 C22,0.6729 21.3271,0 20.5,0 L20.5,0 L20.5,0 Z M1.5,1 L3,1 L3,2.5 C3,2.7764 3.2236,3 3.5,3 C3.7764,3 4,2.7764 4,2.5 L4,1 L6,1 L6,2.5 C6,2.7764 6.2236,3 6.5,3 C6.7764,3 7,2.7764 7,2.5 L7,1 L9,1 L9,2.5 C9,2.7764 9.2236,3 9.5,3 C9.7764,3 10,2.7764 10,2.5 L10,1 L12,1 L12,2.5 C12,2.7764 12.2236,3 12.5,3 C12.7764,3 13,2.7764 13,2.5 L13,1 L15,1 L15,2.5 C15,2.7764 15.2236,3 15.5,3 C15.7764,3 16,2.7764 16,2.5 L16,1 L18,1 L18,2.5 C18,2.7764 18.2236,3 18.5,3 C18.7764,3 19,2.7764 19,2.5 L19,1 L20.5,1 C20.7754,1 21,1.2241 21,1.5 L21,4 L1,4 L1,1.5 C1,1.2241 1.2241,1 1.5,1 L1.5,1 L1.5,1 Z M20.5,23 L1.5,23 C1.2241,23 1,22.7754 1,22.5 L1,5 L21,5 L21,22.5 C21,22.7754 20.7754,23 20.5,23 L20.5,23 L20.5,23 Z" id="Shape"></path>
                    <text id="25" font-family="National-Medium, National" font-size="14" font-weight="400">
                        <tspan x="5.074" y="17">25</tspan>
                    </text>
                </g>
            </g>
        </g>
    </g>
</svg>