<?xml version="1.0" encoding="UTF-8" standalone="no"?>
<svg width="24px" height="24px" viewBox="0 0 24 24" version="1.1" xmlns="http://www.w3.org/2000/svg" xmlns:xlink="http://www.w3.org/1999/xlink">
    <defs></defs>
    <g id="Page-1" stroke="none" stroke-width="1" fill="none" fill-rule="evenodd">
        <g id="integrations" class="icon" fill="#767771">
            <path d="M23.7207,14.5703 C23.7212,14.5655 23.7191,14.5614 23.7194,14.5566 C23.8992,13.7318 24,12.8779 24,12 C24,8.9919 22.8794,6.246 21.0441,4.1377 C21.0145,4.079 20.9733,4.025 20.9199,3.98 C20.9084,3.9703 20.894,3.9677 20.8818,3.9592 C19.6796,2.6325 18.1923,1.5722 16.5086,0.8866 C16.4824,0.8757 16.4602,0.8585 16.4316,0.8521 C16.4254,0.8507 16.4195,0.8528 16.4132,0.8517 C15.0454,0.3082 13.5592,0 12,0 C8.6502,0 5.6201,1.3832 3.441,3.6042 C3.4048,3.6335 3.3756,3.6674 3.3488,3.7056 C1.9953,5.1167 0.9875,6.8553 0.4488,8.791 C0.4448,8.7989 0.4377,8.8038 0.4341,8.812 C0.4059,8.8763 0.3929,8.9431 0.3926,9.0091 C0.1454,9.9672 0,10.9658 0,12 C0,12.5562 0.0513,13.0992 0.1249,13.6355 C0.1247,13.6581 0.1172,13.6791 0.1201,13.7022 C0.1239,13.732 0.139,13.7566 0.1476,13.7844 C0.5239,16.2915 1.6709,18.5455 3.3493,20.2952 C3.3759,20.333 3.4048,20.3666 3.4406,20.3956 C5.0939,22.0809 7.2365,23.2828 9.6387,23.7642 C9.6442,23.7655 9.6482,23.7694 9.6538,23.7706 C9.6827,23.7771 9.7111,23.7787 9.7393,23.7796 C10.4724,23.9199 11.2266,24 12,24 C12.7701,24 13.5213,23.9202 14.2515,23.7809 C14.2641,23.7807 14.2763,23.7801 14.2891,23.7793 C14.2995,23.7784 14.3078,23.7722 14.318,23.7707 C17.6361,23.1184 20.4584,21.091 22.1867,18.3122 C22.1937,18.3051 22.2034,18.3026 22.21,18.2949 C22.2585,18.2394 22.2901,18.1759 22.3099,18.1097 C22.9423,17.0466 23.4176,15.8821 23.6977,14.6413 C23.7042,14.6169 23.718,14.5961 23.7207,14.5703 L23.7207,14.5703 Z M22.811,13.9858 C22.1781,13.9459 21.4323,13.9562 20.745,14.0556 C20.4043,13.4375 19.7541,13.0127 19,13.0127 C18.8109,13.0127 18.6313,13.0476 18.4578,13.0969 C17.9532,12.1895 17.5343,11.2234 17.2077,10.2094 C17.9484,9.775 18.4522,8.979 18.4522,8.06 C18.4522,7.7709 18.3932,7.4976 18.3025,7.2391 C19.1182,6.5937 19.9194,5.8506 20.578,5.1313 C22.0898,7.0154 23,9.402 23,12 C23,12.6788 22.9293,13.3406 22.811,13.9858 L22.811,13.9858 Z M21.6979,17.1819 C21.4915,16.998 21.2821,16.8071 21.1357,16.6602 C20.9663,16.4908 20.81,16.3143 20.6498,16.1398 C20.8676,15.822 20.9959,15.4388 20.9986,15.026 C21.4719,14.967 22.0248,14.9485 22.5803,14.9738 C22.3627,15.7465 22.0704,16.4877 21.6979,17.1819 L21.6979,17.1819 Z M18,15.0127 C18,14.4609 18.4482,14.0127 19,14.0127 C19.5518,14.0127 20,14.4609 20,15.0127 C20,15.5645 19.5518,16.0127 19,16.0127 C18.4482,16.0127 18,15.5645 18,15.0127 L18,15.0127 Z M14.4521,8.0601 C14.4521,7.233 15.125,6.5601 15.9521,6.5601 C16.7792,6.5601 17.4521,7.233 17.4521,8.0601 C17.4521,8.8872 16.7792,9.5601 15.9521,9.5601 C15.125,9.5601 14.4521,8.8872 14.4521,8.0601 L14.4521,8.0601 Z M19.9122,4.377 C19.305,5.051 18.5559,5.7538 17.7851,6.373 C17.434,5.9918 16.9717,5.7157 16.4443,5.6099 C16.414,4.396 16.5021,3.1609 16.6953,2.0674 C17.9045,2.6414 18.9937,3.4238 19.9122,4.377 L19.9122,4.377 Z M15.7524,1.6732 C15.5209,2.8765 15.4132,4.2586 15.4456,5.612 C14.309,5.8469 13.4522,6.8552 13.4522,8.0601 C13.4522,8.3262 13.5051,8.5778 13.5824,8.8185 C13.0845,9.015 12.5791,9.19 12.0648,9.3351 C11.7763,8.4713 11.3437,7.6571 10.7771,6.9105 C10.9149,6.6392 11,6.3369 11,6.0122 C11,4.9092 10.103,4.0122 9,4.0122 C8.5499,4.0122 8.1387,4.167 7.8041,4.4188 C6.9594,4.0031 5.9669,3.7005 4.9481,3.5685 C6.8591,1.9675 9.3178,1 12,1 C13.3193,1 14.5793,1.2455 15.7524,1.6732 L15.7524,1.6732 Z M11.5,12 C11.5,13.0991 11.2444,14.1804 10.783,15.1693 C10.393,14.9569 9.953,14.8252 9.4786,14.8252 C8.8669,14.8252 8.3068,15.0327 7.8496,15.3716 C6.1602,13.8024 3.5505,12.9315 1.0561,13.1074 C1.0195,12.7432 1,12.3738 1,12 C1,11.2084 1.0882,10.4377 1.2478,9.6932 C1.6829,9.8677 2.106,10.0216 2.5141,10.1519 C2.5858,10.9128 3.2207,11.5122 4,11.5122 C4.5476,11.5122 5.0227,11.2141 5.2845,10.7747 C6.0706,10.8839 6.8674,10.9502 7.663,10.9502 C8.9151,10.9502 10.1441,10.808 11.345,10.5447 C11.4394,11.0198 11.5,11.5038 11.5,12 L11.5,12 Z M4.9468,20.4302 C5.9212,20.3046 6.8712,20.0255 7.6835,19.6416 C8.142,20.0403 8.7281,20.2905 9.3763,20.3149 C9.386,20.3781 9.4,20.4394 9.4082,20.5029 C9.488,21.1196 9.4623,21.9097 9.3519,22.6642 C7.708,22.2556 6.2066,21.486 4.9468,20.4302 L4.9468,20.4302 Z M7.0469,18.8323 C6.1346,19.2236 5.0268,19.4682 3.9748,19.4986 C2.5909,18.0186 1.6068,16.1632 1.2061,14.0973 C3.4077,13.9601 5.6922,14.7273 7.1661,16.0988 C6.8924,16.5262 6.7287,17.0309 6.7287,17.5751 C6.7285,18.0305 6.8502,18.4538 7.0469,18.8323 L7.0469,18.8323 Z M9.4785,19.3252 C8.5137,19.3252 7.7285,18.54 7.7285,17.5752 C7.7285,16.6104 8.5137,15.8252 9.4785,15.8252 C10.4433,15.8252 11.2285,16.6104 11.2285,17.5752 C11.2285,18.54 10.4434,19.3252 9.4785,19.3252 L9.4785,19.3252 Z M4,10.5122 C3.7241,10.5122 3.5,10.2881 3.5,10.0122 C3.5,9.7363 3.7241,9.5122 4,9.5122 C4.2759,9.5122 4.5,9.7363 4.5,10.0122 C4.5,10.2881 4.2759,10.5122 4,10.5122 L4,10.5122 Z M5.4779,9.7935 C5.3709,9.0705 4.7523,8.5122 4,8.5122 C3.4811,8.5122 3.0234,8.7773 2.754,9.1788 C2.349,9.0474 1.9292,8.8932 1.5007,8.718 C1.9999,7.1244 2.8604,5.6933 3.9743,4.5018 C5.0695,4.5337 6.2214,4.7989 7.1638,5.2226 C7.0591,5.4651 7,5.7316 7,6.0122 C7,7.1152 7.897,8.0122 9,8.0122 C9.4003,8.0122 9.7718,7.8914 10.0848,7.688 C10.5087,8.2783 10.8559,8.9053 11.0882,9.5753 C9.2517,9.9719 7.3492,10.0468 5.4779,9.7935 L5.4779,9.7935 Z M9,7.0122 C8.4487,7.0122 8,6.5635 8,6.0122 C8,5.4609 8.4487,5.0122 9,5.0122 C9.5513,5.0122 10,5.4609 10,6.0122 C10,6.5635 9.5513,7.0122 9,7.0122 L9,7.0122 Z M10.3326,22.8598 C10.4638,21.9977 10.494,21.1009 10.4003,20.374 C10.3911,20.3036 10.3755,20.2356 10.3647,20.1657 C11.4451,19.7947 12.2285,18.78 12.2285,17.5751 C12.2285,16.9044 11.9778,16.2973 11.5776,15.8195 C12.1727,14.6387 12.5,13.3304 12.5,12 C12.5,11.4177 12.435,10.8477 12.3207,10.2913 C12.914,10.1236 13.499,9.926 14.0746,9.6931 C14.5332,10.2197 15.2004,10.56 15.9522,10.56 C16.0535,10.56 16.1497,10.5419 16.2479,10.5301 C16.5959,11.6085 17.0428,12.6386 17.5819,13.6049 C17.2227,13.9667 17,14.4641 17,15.0127 C17,15.2199 17.0407,15.416 17.0995,15.6041 C16.4748,16.0675 15.9024,16.5967 15.4229,17.2177 C15.3437,17.3209 15.2748,17.4279 15.2009,17.5329 C15.1346,17.5239 15.0688,17.5126 15,17.5126 C14.1729,17.5126 13.5,18.1855 13.5,19.0126 C13.5,19.4489 13.6904,19.8388 13.9888,20.1131 C13.775,20.9246 13.6834,21.8786 13.7256,22.8508 C13.1619,22.9403 12.5884,23 12,23 C11.4318,23 10.8779,22.9433 10.3326,22.8598 L10.3326,22.8598 Z M15,19.5127 C14.7246,19.5127 14.5,19.2881 14.5,19.0127 C14.5,18.7373 14.7246,18.5127 15,18.5127 C15.2754,18.5127 15.5,18.7373 15.5,19.0127 C15.5,19.2881 15.2754,19.5127 15,19.5127 L15,19.5127 Z M14.7166,22.6466 C14.6972,21.8879 14.7682,21.1436 14.9202,20.5046 C14.9472,20.5061 14.9727,20.5127 15,20.5127 C15.8271,20.5127 16.5,19.8398 16.5,19.0127 C16.5,18.6197 16.3448,18.2643 16.0966,17.9966 C16.1371,17.9409 16.1727,17.883 16.2148,17.8281 C16.6203,17.3028 17.1031,16.8559 17.6258,16.4586 C17.9847,16.7998 18.467,17.0127 18.9999,17.0127 C19.3222,17.0127 19.6226,16.9288 19.8925,16.7927 C20.0687,16.9854 20.2419,17.1805 20.4276,17.3662 C20.6186,17.5579 20.9123,17.8227 21.1745,18.0542 C19.6872,20.3007 17.3965,21.962 14.7166,22.6466 L14.7166,22.6466 Z" id="_x40__x3C_Compound_Path_x3E__63_"></path>
        </g>
    </g>
</svg>