<?xml version="1.0" encoding="UTF-8" standalone="no"?>
<svg width="24px" height="24px" viewBox="0 0 24 24" version="1.1" xmlns="http://www.w3.org/2000/svg" xmlns:xlink="http://www.w3.org/1999/xlink">
    <defs></defs>
    <g id="Page-1" stroke="none" stroke-width="1" fill="none" fill-rule="evenodd">
        <g id="organization" class="icon" fill="#767771">
            <g id="_x40__x3C_Group_x3E__51_">
                <path d="M23.5,23 L22,23 L22,3 L22.0498,3 C22.8496,3 23.5,2.3271 23.5,1.5 C23.5,0.6729 22.8496,0 22.0498,0 L1.9502,0 C1.1504,0 0.5,0.6729 0.5,1.5 C0.5,2.3271 1.1504,3 1.9502,3 L2,3 L2,23 L0.5,23 C0.2236,23 0,23.2236 0,23.5 C0,23.7764 0.2236,24 0.5,24 L8,24 L11,24 L13,24 L16,24 L23.5,24 C23.7764,24 24,23.7764 24,23.5 C24,23.2236 23.7764,23 23.5,23 L23.5,23 Z M1.5,1.5 C1.5,1.2241 1.7021,1 1.9502,1 L22.0498,1 C22.2979,1 22.5,1.2241 22.5,1.5 C22.5,1.7759 22.2979,2 22.0498,2 L1.9502,2 C1.7021,2 1.5,1.7759 1.5,1.5 L1.5,1.5 Z M9,23 L9,22 L10,22 L10,23 L9,23 L9,23 Z M14,23 L14,22 L15,22 L15,23 L14,23 L14,23 Z M13,21 L13,23 L11,23 L11,21 L8,21 L8,23 L3,23 L3,3 L21,3 L21,23 L16,23 L16,21 L13,21 L13,21 Z" id="Shape"></path>
                <path d="M6,9 L10,9 L10,5 L6,5 L6,9 L6,9 Z M7,6 L9,6 L9,8 L7,8 L7,6 L7,6 Z" id="Shape"></path>
                <path d="M6,14 L10,14 L10,10 L6,10 L6,14 L6,14 Z M7,11 L9,11 L9,13 L7,13 L7,11 L7,11 Z" id="Shape"></path>
                <path d="M6,19 L10,19 L10,15 L6,15 L6,19 L6,19 Z M7,16 L9,16 L9,18 L7,18 L7,16 L7,16 Z" id="Shape"></path>
                <path d="M18,5 L14,5 L14,9 L18,9 L18,5 L18,5 Z M17,8 L15,8 L15,6 L17,6 L17,8 L17,8 Z" id="Shape"></path>
                <path d="M18,10 L14,10 L14,14 L18,14 L18,10 L18,10 Z M17,13 L15,13 L15,11 L17,11 L17,13 L17,13 Z" id="Shape"></path>
                <path d="M18,15 L14,15 L14,19 L18,19 L18,15 L18,15 Z M17,18 L15,18 L15,16 L17,16 L17,18 L17,18 Z" id="Shape"></path>
            </g>
        </g>
    </g>
</svg>