<?xml version="1.0" encoding="UTF-8" standalone="no"?>
<svg width="18px" height="24px" viewBox="0 0 18 24" version="1.1" xmlns="http://www.w3.org/2000/svg" xmlns:xlink="http://www.w3.org/1999/xlink">
    <defs></defs>
    <g id="Page-1" stroke="none" stroke-width="1" fill="none" fill-rule="evenodd">
        <g id="personal" class="icon" fill="#767771">
            <path d="M17.7407,19.6455 C17.5307,19.3535 17.0542,19.1846 15.2651,18.6435 C14.2797,18.3456 12.6303,17.8466 12.3745,17.5869 C12.0954,17.3032 11.881,15.9069 11.8369,14.6894 C12.7035,13.8737 13.5082,12.6993 14.1919,11.208 C14.5845,10.3481 14.8198,8.3237 14.8198,5.7915 C14.8198,2.3813 12.4214,0 8.9868,0 C5.6065,0 3.1533,2.4795 3.1533,5.896 C3.1533,8.3306 3.3872,10.3189 3.7788,11.2139 C4.4278,12.6983 5.2337,13.8838 6.1182,14.7049 C5.9964,15.9094 5.6978,17.3013 5.3833,17.6152 C5.1221,17.8759 3.6143,18.3418 2.7134,18.6201 C0.8511,19.1943 0.3086,19.3808 0.1797,19.831 C0.1724,19.8583 -0.3872,22.6064 0.5064,22.9638 C1.2847,23.2754 3.6694,24 8.9868,24 C14.4839,24 17.1831,23.2959 17.6567,22.8223 C18.1069,22.3721 18.0376,20.0586 17.7407,19.6455 L17.7407,19.6455 Z M4.1533,5.896 C4.1533,3.0132 6.1411,1 8.9868,1 C11.3921,1 13.8198,2.4814 13.8198,5.7915 C13.8198,8.6152 13.5298,10.25 13.2827,10.7915 C12.0747,13.4268 10.4683,15 8.9868,15 C7.4687,15 5.8242,13.3955 4.6948,10.8135 C4.4453,10.2422 4.1533,8.6113 4.1533,5.896 L4.1533,5.896 Z M16.9136,22.127 C16.4507,22.3594 14.2232,23 8.9868,23 C4.103,23 1.8056,22.3701 1.0376,22.0957 C0.9707,21.709 1.0322,20.6699 1.1143,20.2275 C1.4161,20.0673 2.3267,19.7861 3.0083,19.5752 C4.6543,19.0674 5.6836,18.7295 6.0903,18.3223 C6.6347,17.7779 6.9118,16.3528 7.0424,15.3968 C7.6748,15.7809 8.3296,16 8.9868,16 C9.6246,16 10.2588,15.7891 10.8752,15.4172 C10.9505,16.4068 11.1454,17.7642 11.6616,18.2881 C12.0678,18.7002 13.1841,19.0586 14.9751,19.6006 C15.6763,19.8125 16.6147,20.0967 16.9155,20.249 C16.9956,20.6318 17.0083,21.7607 16.9136,22.127 L16.9136,22.127 Z" id="_x40__x3C_Compound_Path_x3E__20_"></path>
        </g>
    </g>
</svg>