<?xml version="1.0" encoding="UTF-8" standalone="no"?>
<svg width="24px" height="22px" viewBox="0 0 24 22" version="1.1" xmlns="http://www.w3.org/2000/svg" xmlns:xlink="http://www.w3.org/1999/xlink">
    <defs></defs>
    <g id="Page-1" stroke="none" stroke-width="1" fill="none" fill-rule="evenodd">
        <g id="settings" class="icon" fill="#767771">
            <g id="_x40__x3C_Group_x3E__158_">
                <path d="M18,3 C18,3.5523 17.5523,4 17,4 L16,4 C15.4477,4 15,3.5523 15,3 L15,3 C15,2.4477 15.4477,2 16,2 L17,2 C17.5523,2 18,2.4477 18,3 L18,3 L18,3 Z" id="Shape"></path>
                <path d="M21,6 L3,6 C1.3457,6 0,4.6543 0,3 C0,1.3457 1.3457,0 3,0 L21,0 C22.6543,0 24,1.3457 24,3 C24,4.6543 22.6543,6 21,6 L21,6 Z M3,1 C1.897,1 1,1.897 1,3 C1,4.103 1.897,5 3,5 L21,5 C22.1025,5 23,4.103 23,3 C23,1.897 22.1025,1 21,1 L3,1 L3,1 Z" id="Shape"></path>
                <path d="M7,11 C7,11.5523 6.5523,12 6,12 L5,12 C4.4477,12 4,11.5523 4,11 L4,11 C4,10.4477 4.4477,10 5,10 L6,10 C6.5523,10 7,10.4477 7,11 L7,11 L7,11 Z" id="Shape"></path>
                <path d="M21,14 L3,14 C1.3457,14 0,12.6543 0,11 C0,9.3457 1.3457,8 3,8 L21,8 C22.6543,8 24,9.3457 24,11 C24,12.6543 22.6543,14 21,14 L21,14 Z M3,9 C1.897,9 1,9.897 1,11 C1,12.1025 1.897,13 3,13 L21,13 C22.1025,13 23,12.1025 23,11 C23,9.897 22.1025,9 21,9 L3,9 L3,9 Z" id="Shape"></path>
                <path d="M14,19 C14,19.5523 13.5523,20 13,20 L12,20 C11.4477,20 11,19.5523 11,19 L11,19 C11,18.4477 11.4477,18 12,18 L13,18 C13.5523,18 14,18.4477 14,19 L14,19 L14,19 Z" id="Shape"></path>
                <path d="M21,22 L3,22 C1.3457,22 0,20.6543 0,19 C0,17.3457 1.3457,16 3,16 L21,16 C22.6543,16 24,17.3457 24,19 C24,20.6543 22.6543,22 21,22 L21,22 Z M3,17 C1.897,17 1,17.8975 1,19 C1,20.1025 1.897,21 3,21 L21,21 C22.1025,21 23,20.1025 23,19 C23,17.8975 22.1025,17 21,17 L3,17 L3,17 Z" id="Shape"></path>
            </g>
        </g>
    </g>
</svg>