<?xml version="1.0" encoding="UTF-8" standalone="no"?>
<svg width="25px" height="21px" viewBox="0 0 25 21" version="1.1" xmlns="http://www.w3.org/2000/svg" xmlns:xlink="http://www.w3.org/1999/xlink">
    <defs></defs>
    <g id="Page-1" stroke="none" stroke-width="1" fill="none" fill-rule="evenodd">
        <g id="team" transform="translate(1.000000, 1.000000)" class="icon" fill="#767771">
            <path d="M21.7968,14.7559 C21.8146,14.5182 21.8826,14.2619 21.9819,13.9911 C22.4055,13.7909 22.6281,13.4519 22.7822,13.1963 C22.8183,13.1367 22.8535,13.0781 22.8916,13.0225 C23.6338,11.9502 24.0215,9.9161 23.9824,7.2954 C23.9609,5.8266 23.1601,4.7861 21.6035,4.2036 C21.0303,3.9888 19.7197,3.7969 18.6465,4.1909 C18.417,4.2755 18.1361,4.3958 17.845,4.5577 C17.8445,4.5158 17.8463,4.4772 17.8457,4.4351 C17.8174,2.48 16.7461,1.0933 14.6621,0.313 C13.6123,-0.0806 11.8144,-0.1216 10.6831,0.2959 C9.9081,0.5811 8.498,1.2393 7.7646,2.44 C7.3167,3.174 7.0156,4.1646 6.9212,5.1124 C6.3858,4.6385 5.7483,4.3405 5.3422,4.191 C4.2699,3.797 2.9594,3.9898 2.3847,4.2037 C0.8281,4.7867 0.0273,5.8267 0.0058,7.2955 C-0.0333,9.9166 0.3544,11.9513 1.0976,13.0235 C1.1352,13.0782 1.1704,13.1368 1.206,13.1964 C1.3605,13.4523 1.5831,13.7919 2.0073,13.9916 C2.1061,14.2616 2.174,14.5177 2.1918,14.7559 C1.2787,15.0567 0.227,15.5928 0.0116,16.7325 C-0.026,16.9317 0.0282,17.1319 0.1644,17.296 C0.5423,17.7511 1.7479,17.9815 3.7479,17.9815 C4.1167,17.9815 4.5101,17.9861 4.9072,17.9921 C4.9025,18.1604 4.9093,18.3322 4.9427,18.5118 C5.2025,19.9102 12.2938,19.9727 12.3651,19.9727 C15.3788,19.9727 17.4051,19.1573 18.0751,18.3497 C18.1781,18.2258 18.2351,18.1118 18.2738,18.0051 L18.3426,18.004 C18.9852,17.9923 19.6424,17.9815 20.2401,17.9815 C22.2411,17.9815 23.4462,17.751 23.8241,17.295 C23.9598,17.1309 24.0145,16.9307 23.9764,16.7315 C23.7616,15.5929 22.7099,15.0557 21.7968,14.7559 L21.7968,14.7559 Z M18.9921,5.1295 C19.7587,4.8483 20.7958,4.9689 21.2528,5.1402 C22.9598,5.7789 22.9764,6.8917 22.9823,7.3101 C23.0175,9.6895 22.6854,11.5645 22.0692,12.4532 C22.0204,12.5245 21.9735,12.6007 21.9266,12.6788 C21.7411,12.9864 21.6473,13.1417 21.2674,13.1583 C20.6424,13.1739 18.826,12.5802 18.1707,12.2579 C17.6473,12.0011 17.3455,11.2755 17.1834,10.7125 L17.146,10.575 C17.5446,9.3166 17.7843,7.6954 17.8372,5.7792 C18.149,5.5269 18.5406,5.2956 18.9921,5.1295 L18.9921,5.1295 Z M15.2558,14.9483 C15.2219,14.5323 15.1979,14.0673 15.1975,13.5691 C15.7314,13.3091 16.006,12.8686 16.2041,12.5401 C16.2559,12.4542 16.3066,12.3692 16.3613,12.2911 C16.4411,12.1761 16.5125,12.0387 16.5862,11.9073 C16.8837,12.4984 17.2619,12.926 17.7305,13.1563 C17.7343,13.1582 17.7408,13.1608 17.7448,13.1627 C17.6688,13.6305 17.6026,14.0506 17.5459,14.4297 C17.0845,14.5485 16.3966,14.7763 15.7809,15.1345 C15.6123,15.0705 15.4417,15.0071 15.2558,14.9483 L15.2558,14.9483 Z M8.6181,2.961 C9.038,2.273 9.9169,1.6436 11.0287,1.2344 C11.4652,1.0738 12.0053,0.9888 12.5907,0.9888 C13.3456,0.9888 13.9745,1.1236 14.3114,1.2495 C16.8124,2.186 16.8368,3.8306 16.8456,4.4497 C16.8954,7.8018 16.4188,10.4521 15.539,11.7217 C15.4726,11.8174 15.4111,11.919 15.3476,12.0235 C15.0908,12.4493 14.9062,12.7569 14.2714,12.7852 L14.2089,12.7872 C13.1972,12.7872 10.7548,11.9503 9.8676,11.5138 C9.0761,11.1251 8.6288,10.0626 8.3925,9.2394 C7.9589,7.7281 7.9023,6.7105 7.8822,5.7974 C7.8612,4.8565 8.1567,3.7164 8.6181,2.961 L8.6181,2.961 Z M9.1864,14.5343 C8.7359,14.646 8.2901,14.7843 7.8655,14.9487 C7.3455,14.6953 6.813,14.5252 6.4422,14.4298 C6.3855,14.0507 6.3195,13.6307 6.2435,13.163 C6.2475,13.161 6.2542,13.1584 6.2581,13.1564 C6.9427,12.8205 7.4495,12.09 7.7654,10.9875 C7.8015,10.8616 7.8237,10.7529 7.8536,10.6348 C8.1947,11.3588 8.6305,11.8802 9.1453,12.2203 C9.1524,13.1961 9.1654,13.9559 9.1864,14.5343 L9.1864,14.5343 Z M1.0058,7.3101 C1.0121,6.8916 1.0283,5.7793 2.7353,5.1402 C3.1928,4.9688 4.2304,4.8472 4.9965,5.1295 C5.7665,5.4127 6.372,5.8434 6.6576,6.3111 C6.7665,6.4896 6.8658,6.7104 6.947,6.9487 C6.9861,7.39 7.0458,7.8671 7.1611,8.4213 C7.1393,9.127 7.0686,9.7924 6.8046,10.7115 C6.643,11.2755 6.3407,12.0011 5.8178,12.2579 C5.162,12.5802 3.3598,13.1974 2.7206,13.1573 C2.3412,13.1417 2.2479,12.9864 2.0624,12.6788 C2.015,12.6007 1.9686,12.5245 1.9193,12.4532 C1.3031,11.5645 0.9701,9.6895 1.0058,7.3101 L1.0058,7.3101 Z M3.748,16.9815 C2.1499,16.9815 1.3613,16.8194 1.0566,16.7081 C1.1977,16.3722 1.5971,15.9561 2.8247,15.6085 C3.0249,15.5519 3.1685,15.3771 3.1865,15.17 C3.2156,14.8353 3.1809,14.4909 3.0956,14.1327 C3.7388,14.057 4.5982,13.8001 5.294,13.5484 C5.3758,14.0576 5.4414,14.4898 5.5029,14.9102 C5.5332,15.1172 5.6894,15.2842 5.894,15.3272 C6.0477,15.3597 6.3289,15.4275 6.655,15.5339 C5.993,15.9323 5.4644,16.4201 5.1666,16.9958 C4.6811,16.9879 4.1971,16.9815 3.748,16.9815 L3.748,16.9815 Z M12.3652,18.9727 C8.8325,18.9727 6.4438,18.4395 5.9067,18.1817 C5.7929,16.6807 8.2768,15.7413 9.8076,15.4171 C10.0483,15.3663 10.2158,15.1476 10.2036,14.9025 C10.1771,14.3847 10.16,13.6736 10.15,12.7229 C11.3453,13.1976 13.2225,13.7849 14.2034,13.7869 C14.2135,14.3608 14.2469,14.893 14.289,15.3733 C14.3066,15.5803 14.4511,15.7542 14.6503,15.8118 C16.7314,16.4026 17.1894,17.1555 17.3183,17.6995 C17.079,18.0333 15.5536,18.9727 12.3652,18.9727 L12.3652,18.9727 Z M20.2402,16.9815 C19.6377,16.9815 18.9746,16.9922 18.3261,17.004 L18.1255,17.0072 C17.8952,16.494 17.499,16.056 16.9151,15.6862 C17.4266,15.4812 17.9089,15.3666 18.0947,15.3273 C18.2998,15.2834 18.456,15.1173 18.4863,14.9103 C18.5475,14.4899 18.6133,14.0576 18.6948,13.5484 C19.3908,13.8001 20.2503,14.057 20.8928,14.1328 C20.8072,14.4912 20.7723,14.8359 20.8017,15.1701 C20.8193,15.3771 20.9638,15.5519 21.163,15.6086 C22.3915,15.9563 22.79,16.3723 22.9316,16.7082 C22.6269,16.8194 21.8388,16.9815 20.2402,16.9815 L20.2402,16.9815 Z" id="_x40__x3C_Compound_Path_x3E__10_"></path>
        </g>
    </g>
</svg>