<?xml version="1.0" encoding="UTF-8" standalone="no"?>
<svg width="208px" height="208px" viewBox="0 0 208 208" version="1.1" xmlns="http://www.w3.org/2000/svg" xmlns:xlink="http://www.w3.org/1999/xlink">
    <!-- Generator: Sketch 3.6.1 (26313) - http://www.bohemiancoding.com/sketch -->
    <title>Untitled 2</title>
    <desc>Created with Sketch.</desc>
    <defs></defs>
    <g id="Page-1" stroke="none" stroke-width="1" fill="none" fill-rule="evenodd">
        <path d="M7.02943725,40.9705627 L167.029437,200.970563 C176.40202,210.343146 191.59798,210.343146 200.970563,200.970563 C210.343146,191.59798 210.343146,176.40202 200.970563,167.029437 L40.9705627,7.02943725 C31.5979797,-2.34314575 16.4020203,-2.34314575 7.02943725,7.02943725 C-2.34314575,16.4020203 -2.34314575,31.5979797 7.02943725,40.9705627 L7.02943725,40.9705627 Z" id="Path-5" fill="#353a3d"></path>
        <path d="M167.029437,7.02943725 L7.02943725,167.029437 C-2.34314575,176.40202 -2.34314575,191.59798 7.02943725,200.970563 C16.4020203,210.343146 31.5979797,210.343146 40.9705627,200.970563 L200.970563,40.9705627 C210.343146,31.5979797 210.343146,16.4020203 200.970563,7.02943725 C191.59798,-2.34314575 176.40202,-2.34314575 167.029437,7.02943725 L167.029437,7.02943725 Z" id="Path-5" fill="#353a3d"></path>
    </g>
</svg>