<?xml version="1.0" encoding="UTF-8" standalone="no"?>
<svg width="204px" height="264px" viewBox="0 0 204 264" version="1.1" xmlns="http://www.w3.org/2000/svg" xmlns:xlink="http://www.w3.org/1999/xlink">
    <!-- Generator: Sketch 3.6.1 (26313) - http://www.bohemiancoding.com/sketch -->
    <title>Untitled 2</title>
    <desc>Created with Sketch.</desc>
    <defs></defs>
    <g id="Page-1" stroke="none" stroke-width="1" fill="none" fill-rule="evenodd">
        <path d="M155.974508,47.7706176 L156.136719,160.65062 L80,160.65062 C66.745166,160.65062 56,171.395786 56,184.65062 C56,197.905454 66.745166,208.65062 80,208.65062 L179.940349,208.65062 C193.195183,208.65062 203.940349,197.905454 203.940349,184.65062 L203.940349,24 C203.940349,10.745166 193.195183,0 179.940349,0 L99.2526357,0 C85.9978017,0 75.2526357,10.745166 75.2526357,24 C75.2526357,37.254834 85.9978017,48 99.2526357,48 L155.974508,47.7706176 Z" id="Path-9" fill="#FFFFFF"></path>
        <path d="M79.8863068,104 L79.8863068,264 L0,184 L79.8863068,104 Z" id="Path-10" fill="#FFFFFF"></path>
    </g>
</svg>