<?xml version="1.0" encoding="UTF-8" standalone="no"?>
<svg width="559px" height="537px" viewBox="0 0 559 537" version="1.1" xmlns="http://www.w3.org/2000/svg" xmlns:xlink="http://www.w3.org/1999/xlink">
    <!-- Generator: Sketch 3.7.2 (28276) - http://www.bohemiancoding.com/sketch -->
    <title>Slice 1</title>
    <desc>Created with Sketch.</desc>
    <defs></defs>
    <g id="Page-1" stroke="none" stroke-width="1" fill="none" fill-rule="evenodd">
        <path d="M0.950211032,252.45194 C0.950211032,243.61604 8.10426808,236.453127 16.9422008,236.453127 L16.9422008,236.453127 L118.734275,236.453127 C125.35959,236.453127 130.730469,241.825662 130.730469,248.459379 L130.730469,275.238283 C130.730469,275.238283 229.258617,158.394633 252.219254,116.351563 C275.179891,74.3084918 246.219676,33.335912 261.507798,13.5624999 C276.79592,-6.21091215 304.652329,-3.9843756 330.652329,19.8750001 C356.652329,43.7343758 360.989578,64.4335918 355.652344,116.351563 C350.31511,168.269533 323.277329,224.300776 323.277329,224.300776 C323.277329,224.300776 498.655413,213.817086 517.347672,216.218752 C536.039931,218.620418 558.488297,225.175781 558.488297,254.007813 C558.488297,282.839844 536.972672,296.945313 536.972672,296.945313 C536.972672,296.945313 549.311019,312.875876 545.972672,332.742188 C542.634325,352.608499 524.550797,372.867188 524.550797,372.867188 C524.550797,372.867188 537.637054,386.3669 534.996109,407.214844 C532.355165,428.062787 508.843766,449.601562 508.843766,449.601562 C508.843766,449.601562 526.925797,496.003906 496.53125,514.976563 C466.136703,533.949219 245.499137,530.747537 210.929673,528.98822 C176.360208,527.228904 130.730469,469.003906 130.730469,469.003906 L130.730469,520.984482 C130.730469,529.823108 123.568057,536.988231 114.735557,536.988231 L16.9451224,536.988231 C8.11137678,536.988231 0.950211032,529.81891 0.950211032,520.989418 L0.950211032,252.45194 Z" id="Path-1" fill="#353a3d"></path>
    </g>
</svg>