<?xml version="1.0" encoding="UTF-8" standalone="no"?>
<svg width="805px" height="204px" viewBox="0 0 805 204" version="1.1" xmlns="http://www.w3.org/2000/svg" xmlns:xlink="http://www.w3.org/1999/xlink" xmlns:sketch="http://www.bohemiancoding.com/sketch/ns">
    <defs></defs>
    <g id="Page-1" stroke="none" stroke-width="1" fill="none" fill-rule="evenodd" sketch:type="MSPage">
        <g id="logo-wordtype-dark" sketch:type="MSLayerGroup">
            <g id="Page-1" sketch:type="MSShapeGroup">
                <g id="Oval-1-+-Path-13" fill="#D83F21">
                    <path d="M0,17.9918073 C0,8.0552065 8.0598746,0 17.9918073,0 L186.008193,0 C195.944793,0 204,8.0598746 204,17.9918073 L204,186.008193 C204,195.944793 195.940125,204 186.008193,204 L17.9918073,204 C8.0552065,204 0,195.940125 0,186.008193 L0,17.9918073 L0,17.9918073 Z M77.5028521,149.795499 C85.8609317,156.393422 97.834332,155.691276 105.363943,148.161665 L169.154213,84.3713943 C177.355223,76.1703842 177.355223,62.8739196 169.154213,54.6729095 C160.953203,46.4718994 147.656739,46.4718994 139.455728,54.6729095 L88.9169856,105.296462 L63.1226075,84.9342119 C54.0192558,77.7479667 40.8139282,79.3020886 33.627683,88.4054404 C26.4414378,97.508792 27.9955597,110.71412 37.0989115,117.900365 L77.5028521,149.795499 L77.5028521,149.795499 Z" id="Rectangle-4"></path>
                </g>
                <path d="M268.546371,95.4437129 L281.307391,95.4437129 L281.307391,150 L268.546371,150 L268.546371,95.4437129 Z M265.502458,75.5412048 C265.502458,72.8875238 266.419525,70.643636 268.253687,68.8094741 C270.087849,66.9753122 272.292713,66.058245 274.868344,66.058245 C277.522025,66.058245 279.765913,66.9753122 281.600075,68.8094741 C283.434237,70.643636 284.351304,72.8875238 284.351304,75.5412048 C284.351304,78.1168364 283.434237,80.3217 281.600075,82.1558619 C279.765913,83.9900238 277.522025,84.907091 274.868344,84.907091 C272.292713,84.907091 270.087849,83.9900238 268.253687,82.1558619 C266.419525,80.3217 265.502458,78.1168364 265.502458,75.5412048 L265.502458,75.5412048 Z M368.410133,142.624365 C366.693045,145.356095 364.254036,147.502423 361.093034,149.063411 C357.932032,150.6244 354.751565,151.404883 351.551538,151.404883 C347.414917,151.404883 343.629576,150.643912 340.195401,149.121948 C336.761225,147.599984 333.814903,145.512193 331.356345,142.858512 C328.897788,140.204831 326.985605,137.160948 325.61974,133.726773 C324.253875,130.292597 323.570953,126.624329 323.570953,122.721856 C323.570953,118.897434 324.253875,115.248677 325.61974,111.775477 C326.985605,108.302277 328.897788,105.238882 331.356345,102.585201 C333.814903,99.9315201 336.761225,97.8437289 340.195401,96.3217648 C343.629576,94.7998006 347.414917,94.03883 351.551538,94.03883 C354.751565,94.03883 357.932032,94.8193127 361.093034,96.3803016 C364.254036,97.9412904 366.693045,100.087618 368.410133,102.819348 L368.410133,68.0484958 L381.171153,68.0484958 L381.171153,150 L368.410133,150 L368.410133,142.624365 Z M352.253979,140.048746 C354.673512,140.048746 356.878375,139.580456 358.868636,138.643863 C360.858897,137.70727 362.556447,136.458497 363.961337,134.897509 C365.366227,133.33652 366.458902,131.502385 367.239397,129.39505 C368.019891,127.287715 368.410133,125.06334 368.410133,122.721856 C368.410133,120.380373 368.019891,118.155997 367.239397,116.048663 C366.458902,113.941328 365.366227,112.107193 363.961337,110.546204 C362.556447,108.985216 360.858897,107.736443 358.868636,106.79985 C356.878375,105.863257 354.673512,105.394967 352.253979,105.394967 C349.834446,105.394967 347.649095,105.863257 345.697859,106.79985 C343.746623,107.736443 342.068585,108.985216 340.663695,110.546204 C339.258805,112.107193 338.185641,113.941328 337.444171,116.048663 C336.702702,118.155997 336.331972,120.380373 336.331972,122.721856 C336.331972,125.06334 336.702702,127.287715 337.444171,129.39505 C338.185641,131.502385 339.258805,133.33652 340.663695,134.897509 C342.068585,136.458497 343.746623,137.70727 345.697859,138.643863 C347.649095,139.580456 349.834446,140.048746 352.253979,140.048746 L352.253979,140.048746 Z M422.849346,151.404883 C418.478577,151.404883 414.53714,150.643912 411.024915,149.121948 C407.51269,147.599984 404.507832,145.512193 402.010249,142.858512 C399.512667,140.204831 397.580973,137.160948 396.215107,133.726773 C394.849242,130.292597 394.16632,126.624329 394.16632,122.721856 C394.16632,118.897434 394.849242,115.248677 396.215107,111.775477 C397.580973,108.302277 399.512667,105.238882 402.010249,102.585201 C404.507832,99.9315201 407.51269,97.8437289 411.024915,96.3217648 C414.53714,94.7998006 418.478577,94.03883 422.849346,94.03883 C427.220115,94.03883 431.181065,94.7998006 434.732314,96.3217648 C438.283564,97.8437289 441.327446,99.9315201 443.864053,102.585201 C446.40066,105.238882 448.351867,108.302277 449.717732,111.775477 C451.083597,115.248677 451.76652,118.897434 451.76652,122.721856 C451.76652,126.624329 451.083597,130.292597 449.717732,133.726773 C448.351867,137.160948 446.40066,140.204831 443.864053,142.858512 C441.327446,145.512193 438.283564,147.599984 434.732314,149.121948 C431.181065,150.643912 427.220115,151.404883 422.849346,151.404883 L422.849346,151.404883 Z M422.849346,140.048746 C425.268879,140.048746 427.473743,139.580456 429.464003,138.643863 C431.454264,137.70727 433.151814,136.458497 434.556704,134.897509 C435.961594,133.33652 437.05427,131.502385 437.834764,129.39505 C438.615258,127.287715 439.0055,125.06334 439.0055,122.721856 C439.0055,120.380373 438.615258,118.155997 437.834764,116.048663 C437.05427,113.941328 435.961594,112.107193 434.556704,110.546204 C433.151814,108.985216 431.454264,107.736443 429.464003,106.79985 C427.473743,105.863257 425.268879,105.394967 422.849346,105.394967 C420.429813,105.394967 418.244462,105.863257 416.293226,106.79985 C414.34199,107.736443 412.663952,108.985216 411.259062,110.546204 C409.854172,112.107193 408.781008,113.941328 408.039539,116.048663 C407.298069,118.155997 406.92734,120.380373 406.92734,122.721856 C406.92734,125.06334 407.298069,127.287715 408.039539,129.39505 C408.781008,131.502385 409.854172,133.33652 411.259062,134.897509 C412.663952,136.458497 414.34199,137.70727 416.293226,138.643863 C418.244462,139.580456 420.429813,140.048746 422.849346,140.048746 L422.849346,140.048746 Z M464.761687,95.4437129 L477.522707,95.4437129 L477.522707,103.053495 C479.239795,100.087617 481.620267,97.8437289 484.664195,96.3217648 C487.708123,94.7998006 491.25932,94.03883 495.317891,94.03883 C499.298412,94.03883 502.634976,94.7022403 505.327681,96.0290808 C508.020387,97.3559213 510.147203,99.1510316 511.708191,101.414465 C513.035032,103.443751 513.952099,105.707151 514.45942,108.204733 C514.966742,110.702315 515.220399,113.824246 515.220399,117.570619 L515.220399,150 L502.459379,150 L502.459379,121.785268 C502.459379,119.443785 502.264258,117.258433 501.874011,115.229148 C501.483764,113.199862 500.839865,111.463288 499.942297,110.019373 C499.044728,108.575459 497.83498,107.424247 496.313016,106.565703 C494.791052,105.707159 492.898381,105.277893 490.634947,105.277893 C486.186129,105.277893 482.88859,106.858371 480.74223,110.019373 C478.595871,113.180376 477.522707,117.102301 477.522707,121.785268 L477.522707,150 L464.761687,150 L464.761687,95.4437129 Z M554.088826,103.638863 C550.108305,103.638863 546.791253,104.770563 544.137572,107.033997 C541.483891,109.297431 540.157071,112.653507 540.157071,117.102325 L567.318141,117.102325 C567.318141,112.887655 566.08888,109.590115 563.630323,107.209607 C561.171766,104.829099 557.991299,103.638863 554.088826,103.638863 L554.088826,103.638863 Z M540.157071,126.585285 C540.31317,128.536521 540.664387,130.370655 541.210733,132.087743 C541.757079,133.80483 542.596098,135.30726 543.727815,136.595075 C544.859532,137.882891 546.322937,138.897519 548.118074,139.638988 C549.913211,140.380458 552.137587,140.751187 554.791268,140.751187 C558.459592,140.751187 561.113233,140.048753 562.752271,138.643863 C564.391309,137.238973 565.601058,135.560935 566.381552,133.609699 L579.259646,133.609699 C578.869398,135.951182 578.030379,138.19507 576.742564,140.34143 C575.454748,142.48779 573.757198,144.38046 571.649863,146.019498 C569.542528,147.658537 567.084008,148.965845 564.274228,149.941463 C561.464448,150.917081 558.303493,151.404883 554.791268,151.404883 C550.186351,151.404883 546.186377,150.663424 542.791226,149.180485 C539.396075,147.697546 536.566826,145.668291 534.303392,143.092659 C532.039958,140.517027 530.342408,137.473145 529.210691,133.96092 C528.078974,130.448695 527.513124,126.702378 527.513124,122.721856 C527.513124,118.663285 528.117998,114.877944 529.327765,111.365719 C530.537531,107.853495 532.274105,104.809612 534.537539,102.23398 C536.800973,99.6583488 539.610711,97.6486059 542.966837,96.2046912 C546.322963,94.7607765 550.147328,94.03883 554.440047,94.03883 C557.952272,94.03883 561.249811,94.6632162 564.332764,95.9120072 C567.415717,97.1607983 570.108383,98.8973723 572.410841,101.121781 C574.7133,103.346191 576.50841,105.941296 577.796226,108.907174 C579.084042,111.873053 579.72794,115.112056 579.72794,118.624281 C579.72794,119.560875 579.708428,120.673062 579.669403,121.960878 C579.630378,123.248694 579.45477,124.790147 579.142572,126.585285 L540.157071,126.585285 Z M653.015999,150 C652.001357,150.156099 650.635512,150.312195 648.918424,150.468294 C647.201336,150.624393 645.406226,150.702441 643.53304,150.702441 C641.972051,150.702441 640.17694,150.565857 638.147655,150.292684 C636.118369,150.019511 634.186675,149.25854 632.352513,148.009749 C630.518351,146.760958 628.976898,144.848775 627.728107,142.273144 C626.479316,139.697512 625.854929,136.107292 625.854929,131.502375 L625.854929,106.097408 L616.606117,106.097408 L616.606117,95.4437129 L625.854929,95.4437129 L625.854929,78.9363385 L638.615949,78.9363385 L638.615949,95.4437129 L651.142822,95.4437129 L651.142822,106.097408 L638.615949,106.097408 L638.615949,128.575535 C638.615949,130.917019 638.791558,132.790177 639.14278,134.195067 C639.494003,135.599957 640.020829,136.673121 640.723274,137.41459 C641.425719,138.15606 642.264738,138.643862 643.240356,138.87801 C644.215974,139.112158 645.328161,139.229231 646.576953,139.229231 C647.591595,139.229231 648.762319,139.190207 650.08916,139.112157 C651.416,139.034108 652.391604,138.917035 653.015999,138.760937 L653.015999,150 Z M663.903842,68.0484958 L676.664862,68.0484958 L676.664862,103.053495 C678.38195,100.087617 680.762422,97.8437289 683.80635,96.3217648 C686.850278,94.7998006 690.401475,94.03883 694.460046,94.03883 C698.440567,94.03883 701.777131,94.7022403 704.469837,96.0290808 C707.162542,97.3559213 709.289358,99.1510316 710.850347,101.414465 C712.177187,103.443751 713.094254,105.707151 713.601576,108.204733 C714.108897,110.702315 714.362554,113.824246 714.362554,117.570619 L714.362554,150 L701.601534,150 L701.601534,121.785268 C701.601534,119.443785 701.406413,117.258433 701.016166,115.229148 C700.625919,113.199862 699.982021,111.463288 699.084452,110.019373 C698.186883,108.575459 696.977135,107.424247 695.455171,106.565703 C693.933207,105.707159 692.040536,105.277893 689.777103,105.277893 C685.328284,105.277893 682.030745,106.858371 679.884385,110.019373 C677.738026,113.180376 676.664862,117.102301 676.664862,121.785268 L676.664862,150 L663.903842,150 L663.903842,68.0484958 Z M730.518708,95.4437129 L743.279727,95.4437129 L743.279727,150 L730.518708,150 L730.518708,95.4437129 Z M727.474795,75.5412048 C727.474795,72.8875238 728.391862,70.643636 730.226024,68.8094741 C732.060185,66.9753122 734.265049,66.058245 736.840681,66.058245 C739.494362,66.058245 741.73825,66.9753122 743.572411,68.8094741 C745.406573,70.643636 746.32364,72.8875238 746.32364,75.5412048 C746.32364,78.1168364 745.406573,80.3217 743.572411,82.1558619 C741.73825,83.9900238 739.494362,84.907091 736.840681,84.907091 C734.265049,84.907091 732.060185,83.9900238 730.226024,82.1558619 C728.391862,80.3217 727.474795,78.1168364 727.474795,75.5412048 L727.474795,75.5412048 Z M785.192068,119.209649 C787.065255,119.912094 788.899389,120.653553 790.694526,121.434047 C792.489663,122.214542 794.089653,123.190145 795.494543,124.360887 C796.899433,125.531628 798.011621,126.936497 798.83114,128.575535 C799.650659,130.214574 800.060413,132.282853 800.060413,134.780435 C800.060413,137.590215 799.494563,140.048735 798.362846,142.15607 C797.231129,144.263405 795.670163,145.999979 793.679903,147.365845 C791.689642,148.73171 789.367706,149.746337 786.714025,150.409758 C784.060344,151.073178 781.250606,151.404883 778.284727,151.404883 C775.318848,151.404883 772.509111,150.975617 769.85543,150.117074 C767.201749,149.25853 764.840788,147.990245 762.772478,146.312182 C760.704168,144.634119 759.065154,142.56584 757.855388,140.107283 C756.645622,137.648725 756.040747,134.819475 756.040747,131.619448 L768.450547,131.619448 C768.450547,135.209723 769.445662,137.726779 771.435923,139.170694 C773.426184,140.614609 775.94324,141.336555 778.987169,141.336555 C781.484751,141.336555 783.592054,140.868266 785.309142,139.931672 C787.026229,138.995079 787.88476,137.356065 787.88476,135.014582 C787.88476,133.765791 787.533543,132.751164 786.831098,131.970669 C786.128653,131.190175 785.075002,130.468228 783.670112,129.804808 C782.265222,129.141388 780.509136,128.458465 778.401801,127.75602 C776.294466,127.053575 773.796921,126.15602 770.909092,125.063328 C769.035905,124.360883 767.299331,123.599912 765.699318,122.780393 C764.099304,121.960874 762.713947,121.004783 761.543206,119.912091 C760.372464,118.819398 759.474909,117.453554 758.850513,115.814515 C758.226118,114.175477 757.913925,112.185246 757.913925,109.843763 C757.913925,107.268131 758.460263,105.004732 759.552955,103.053495 C760.645647,101.102259 762.128564,99.4437337 764.001751,98.0778684 C765.874937,96.7120032 768.040777,95.6973757 770.499334,95.0339554 C772.957892,94.3705352 775.592021,94.03883 778.401801,94.03883 C781.28963,94.03883 784.001807,94.5071196 786.538414,95.4437129 C789.075021,96.3803062 791.279885,97.6681027 793.153071,99.307141 C795.026258,100.946179 796.509175,102.897386 797.601867,105.16082 C798.69456,107.424254 799.240897,109.882774 799.240897,112.536455 L786.831098,112.536455 C786.831098,109.960824 786.148176,107.912057 784.782311,106.390092 C783.416445,104.868128 781.172558,104.107158 778.05058,104.107158 C775.865196,104.107158 774.011549,104.614471 772.489585,105.629114 C770.967621,106.643757 770.20665,108.126674 770.20665,110.07791 C770.20665,111.248652 770.518843,112.204743 771.143239,112.946213 C771.767634,113.687682 772.704214,114.351093 773.953005,114.936464 C775.201796,115.521834 776.762761,116.146221 778.635948,116.809641 C780.509134,117.473061 782.694486,118.273056 785.192068,119.209649 L785.192068,119.209649 Z" id="i-done-this" fill="#273745"></path>
            </g>
        </g>
    </g>
</svg>