<?xml version="1.0" standalone="no"?>
<!DOCTYPE svg PUBLIC "-//W3C//DTD SVG 20010904//EN"
 "http://www.w3.org/TR/2001/REC-SVG-20010904/DTD/svg10.dtd">
<svg version="1.0" xmlns="http://www.w3.org/2000/svg"
 width="700.000000pt" height="700.000000pt" viewBox="0 0 700.000000 700.000000"
 preserveAspectRatio="xMidYMid meet">
<metadata>
Created by potrace 1.11, written by Peter Selinger 2001-2013
</metadata>
<g transform="translate(0.000000,700.000000) scale(0.100000,-0.100000)"
fill="#000000" stroke="none">
<path d="M469 6985 c-176 -43 -327 -165 -408 -330 -66 -133 -61 109 -59 -3182
l3 -2988 27 -75 c66 -179 205 -316 388 -382 l65 -23 3010 0 3010 0 74 24 c180
59 325 204 393 391 l23 65 0 3010 0 3010 -24 74 c-59 180 -204 325 -391 393
l-65 23 -2995 2 c-2495 1 -3004 -1 -3051 -12z m5026 -1735 c466 -144 656 -663
390 -1064 -30 -46 -1081 -1085 -2170 -2147 -186 -181 -254 -229 -390 -275
-108 -36 -259 -44 -371 -20 -166 36 -200 59 -964 650 -388 300 -739 578 -780
618 -86 84 -139 168 -177 283 -23 69 -27 98 -27 205 -1 104 3 137 22 200 59
190 191 344 367 430 208 102 455 100 655 -6 36 -19 259 -184 496 -367 236
-183 446 -345 466 -360 l36 -28 884 868 c486 477 906 884 933 904 87 63 196
110 303 129 78 15 248 4 327 -20z"/>
</g>
</svg>
