<?xml version="1.0" encoding="UTF-8" standalone="no"?>
<svg width="251px" height="241px" viewBox="0 0 251 241" version="1.1" xmlns="http://www.w3.org/2000/svg" xmlns:xlink="http://www.w3.org/1999/xlink">
    <!-- Generator: Sketch 3.8.3 (29802) - http://www.bohemiancoding.com/sketch -->
    <title>Slice 1</title>
    <desc>Created with Sketch.</desc>
    <defs>
        <circle id="path-1" cx="130.431852" cy="126.017638" r="40.5"></circle>
        <mask id="mask-2" maskContentUnits="userSpaceOnUse" maskUnits="objectBoundingBox" x="-16" y="-16" width="113" height="113">
            <rect x="73.9318517" y="69.5176381" width="113" height="113" fill="white"></rect>
            <use xlink:href="#path-1" fill="black"></use>
        </mask>
    </defs>
    <g id="Page-1" stroke="none" stroke-width="1" fill="none" fill-rule="evenodd">
        <g id="Group-2" transform="translate(114.804688, 139.582031) rotate(-15.000000) translate(-114.804688, -139.582031) translate(4.304688, 13.082031)">
            <g id="Group" transform="translate(-0.000000, 102.000000)">
                <ellipse id="Oval-1" fill="#767771" cx="23.641791" cy="24" rx="23.641791" ry="24"></ellipse>
                <path d="M36.4477612,24 L101,24" id="Path-1" stroke="#767771" stroke-width="16"></path>
            </g>
            <g id="Group" transform="translate(174.784610, 55.301270) rotate(-240.000000) translate(-174.784610, -55.301270) translate(124.784610, 31.301270)">
                <ellipse id="Oval-1" fill="#767771" cx="23.641791" cy="24" rx="23.641791" ry="24"></ellipse>
                <path d="M36.4477612,24 L98.5044629,24" id="Path-1" stroke="#767771" stroke-width="16"></path>
            </g>
            <g id="Group" transform="translate(174.284610, 196.148058) rotate(-120.000000) translate(-174.284610, -196.148058) translate(123.284610, 172.148058)">
                <ellipse id="Oval-1" fill="#767771" cx="23.641791" cy="24" rx="23.641791" ry="24"></ellipse>
                <path d="M36.4477612,24 L101.00962,24" id="Path-1" stroke="#767771" stroke-width="16"></path>
            </g>
            <g id="Oval-1">
                <use fill="#767771" fill-rule="evenodd" xlink:href="#path-1"></use>
                <use stroke="#EBEAE9" mask="url(#mask-2)" stroke-width="32" xlink:href="#path-1"></use>
            </g>
        </g>
    </g>
</svg>