<svg xmlns="http://www.w3.org/2000/svg" viewBox="0 0 22 24">
  <g fill="#478cfe">
    <path d="M20.5 0h-19C0.7 0 0 0.7 0 1.5v21C0 23.3 0.7 24 1.5 24h19c0.8 0 1.5-0.7 1.5-1.5v-21C22 0.7 21.3 0 20.5 0zM18.5 16c0.3 0 0.5 0.2 0.5 0.5s-0.2 0.5-0.5 0.5H15V20.5c0 0.3-0.2 0.5-0.5 0.5S14 20.8 14 20.5v-3.5H8V20.5C8 20.8 7.8 21 7.5 21S7 20.8 7 20.5v-3.5H3.5c-0.3 0-0.5-0.2-0.5-0.5s0.2-0.5 0.5-0.5H7V12H3.5c-0.3 0-0.5-0.2-0.5-0.5s0.2-0.5 0.5-0.5H7V7.5C7 7.2 7.2 7 7.5 7S8 7.2 8 7.5v3.5h6V7.5C14 7.2 14.2 7 14.5 7S15 7.2 15 7.5v3.5h3.5c0.3 0 0.5 0.2 0.5 0.5s-0.2 0.5-0.5 0.5H15v4H18.5zM21 4H1V1.5C1 1.2 1.2 1 1.5 1H3v1.5C3 2.8 3.2 3 3.5 3S4 2.8 4 2.5V1h2v1.5C6 2.8 6.2 3 6.5 3S7 2.8 7 2.5V1h2v1.5C9 2.8 9.2 3 9.5 3S10 2.8 10 2.5V1h2v1.5C12 2.8 12.2 3 12.5 3S13 2.8 13 2.5V1h2v1.5C15 2.8 15.2 3 15.5 3S16 2.8 16 2.5V1h2v1.5C18 2.8 18.2 3 18.5 3S19 2.8 19 2.5V1h1.5C20.8 1 21 1.2 21 1.5V4z"/><rect x="8" y="12" width="6" height="4"/>
  </g>
</svg>