<?xml version="1.0" encoding="UTF-8" standalone="no"?>
<svg width="36px" height="44px" viewBox="0 0 36 44" version="1.1" xmlns="http://www.w3.org/2000/svg" xmlns:xlink="http://www.w3.org/1999/xlink">
    <!-- Generator: Sketch 3.8.3 (29802) - http://www.bohemiancoding.com/sketch -->
    <title>Slice 1</title>
    <desc>Created with Sketch.</desc>
    <defs>
        <polygon id="path-1" points="16.4980469 30.3310547 19.913747 30.3310547 26.6513672 23.5458984 26.9111328 9.79003906 17.9003906 4.62109375 9.36621094 8.87695312 9.36621094 23.5458984"></polygon>
        <filter x="-50%" y="-50%" width="200%" height="200%" filterUnits="objectBoundingBox" id="filter-2">
            <feOffset dx="0" dy="2" in="SourceAlpha" result="shadowOffsetOuter1"></feOffset>
            <feColorMatrix values="0 0 0 0 0.580392157   0 0 0 0 0.580392157   0 0 0 0 0.580392157  0 0 0 0.1 0" type="matrix" in="shadowOffsetOuter1"></feColorMatrix>
        </filter>
    </defs>
    <g id="Page-1" stroke="none" stroke-width="1" fill="none" fill-rule="evenodd">
        <g id="Face">
            <polygon id="Path-3" fill="#989992" points="18.3769531 34.1416016 3.30566406 31.4912109 5.6953125 7.65039062 9.47363281 2.2109375 15.1083984 0.029296875 22.8066406 0.029296875 28.1269531 3.59277344 31.3720703 10.2373047 31.9804687 24.6435547 33.4355469 31.125"></polygon>
            <polygon id="Path-1" fill="#E1DFDD" points="1.08105469 38.4697266 0.907226562 44.2568359 35.1076571 44.2568359 35.1076571 39.1855452 23.0292969 35.5380859 23.0292969 20.8738943 13.0634765 20.8738943 13.0634766 35.5380855"></polygon>
            <g id="Path-2">
                <use fill="black" fill-opacity="1" filter="url(#filter-2)" xlink:href="#path-1"></use>
                <use fill="#F3F2F1" fill-rule="evenodd" xlink:href="#path-1"></use>
            </g>
            <polygon id="Path-4" fill="#989992" points="7.49804688 12.9716797 14.5009766 13.7216797 14.5009766 8.23730469 17.8115234 13.7841797 20.4824219 15.8583984 24.7822266 15.2607422 29.1904297 12.1455078 27.8115234 5.64257812 18.7900391 1.56054688 11.9501953 3.53710938 7.13964844 8.74707031"></polygon>
        </g>
    </g>
</svg>