<svg xmlns="http://www.w3.org/2000/svg" width="21.29" height="21.28" viewBox="0 0 21.29 21.28">
  <defs>
    <style>.cls-1{fill:#8e8f8a;}</style>
  </defs>
  <title>Asset 1</title>
  <g id="Layer_2" data-name="Layer 2">
    <g id="Layer_1-2" data-name="Layer 1">
      <path class="cls-1" d="M10.64,0A10.64,10.64,0,1,0,21.29,10.64,10.65,10.65,0,0,0,10.64,0Zm0,20.49a9.85,9.85,0,1,1,9.85-9.85A9.86,9.86,0,0,1,10.64,20.49Z"/>
      <path class="cls-1" d="M15.73,10.08H5.55a.4.4,0,0,0-.39.44,5.52,5.52,0,0,0,11,0,.4.4,0,0,0-.39-.44Z"/>
      <path class="cls-1" d="M5.4,8A1.33,1.33,0,1,1,8.05,8a.4.4,0,0,0,.79,0A2.12,2.12,0,1,0,4.6,8,.4.4,0,0,0,5.4,8Z"/>
      <path class="cls-1" d="M14.56,5.86A2.12,2.12,0,0,0,12.44,8a.4.4,0,0,0,.79,0,1.33,1.33,0,1,1,2.66,0,.4.4,0,0,0,.79,0A2.12,2.12,0,0,0,14.56,5.86Z"/>
    </g>
  </g>
</svg>